<svg width="353" height="376" viewBox="0 0 353 376" fill="none" xmlns="http://www.w3.org/2000/svg">
<g opacity="0.05">
<path d="M352.968 90.6928C352.968 61.9714 331.349 37.9031 324.352 30.8074C317.354 23.6939 293.713 0 293.713 0V255.783C293.713 284.505 315.332 308.573 322.329 315.669C329.327 322.782 352.968 346.476 352.968 346.476V90.6928Z" fill="#008CFF"/>
<path d="M250.314 126.315C270.698 106.008 272.505 73.7568 272.595 63.8085C272.684 53.8603 272.809 20.45 272.809 20.45L22.4955 269.797C2.11175 290.104 0.304235 322.355 0.214754 332.304C0.125273 342.252 0 375.662 0 375.662L250.314 126.315Z" fill="#008CFF"/>
<path d="M250.314 126.313C270.698 106.007 272.505 73.755 272.595 63.8068C272.684 53.8585 272.809 20.4482 272.809 20.4482L22.4955 269.796C2.11175 290.102 0.304235 322.354 0.214754 332.302C0.125273 342.25 0 375.66 0 375.66L250.314 126.313Z" fill="#008CFF"/>
<path d="M246.732 353.59C267.116 373.896 299.49 375.697 309.476 375.786C319.463 375.875 353 376 353 376L254.732 278.105C234.348 257.798 201.974 255.997 191.988 255.908C182.002 255.819 148.465 255.694 148.465 255.694L246.732 353.59Z" fill="#008CFF"/>
</g>
</svg>
