<svg xmlns="http://www.w3.org/2000/svg" width="151" height="44" viewBox="0 0 151 44" fill="none">
  <g clip-path="url(#clip0_23834_6364)">
    <path d="M8.23636 0.5H142.363C146.635 0.5 150.099 3.96901 150.099 8.25V35.3237C150.099 39.6047 146.635 43.0737 142.363 43.0737H8.23636C3.96447 43.0737 0.5 39.6047 0.5 35.3237V8.25C0.5 3.96901 3.96447 0.5 8.23636 0.5Z" fill="#091F47" stroke="#008CFF"/>
    <path d="M24.8519 21.7031C24.8626 20.8758 25.0819 20.0647 25.4896 19.3451C25.8973 18.6255 26.4802 18.0209 27.1839 17.5876C26.7368 16.9481 26.147 16.4219 25.4615 16.0506C24.776 15.6794 24.0133 15.4733 23.2344 15.4489C21.5726 15.2742 19.9617 16.4449 19.1148 16.4449C18.2517 16.4449 16.948 15.4663 15.5441 15.4951C14.6359 15.5246 13.7509 15.7891 12.9752 16.2629C12.1995 16.7368 11.5596 17.4038 11.1178 18.1991C9.20397 21.5181 10.6315 26.3957 12.4648 29.0786C13.382 30.3923 14.454 31.8597 15.8567 31.8076C17.2292 31.7507 17.7418 30.9309 19.3987 30.9309C21.0401 30.9309 21.5211 31.8076 22.9522 31.7746C24.4251 31.7507 25.3531 30.455 26.238 29.129C26.8971 28.1929 27.4042 27.1583 27.7406 26.0637C26.885 25.7011 26.1547 25.0943 25.641 24.3189C25.1274 23.5434 24.8528 22.6337 24.8519 21.7031Z" fill="white"/>
    <path d="M22.1502 13.6865C22.9532 12.7208 23.3488 11.4797 23.253 10.2266C22.0261 10.3556 20.8929 10.943 20.0789 11.8716C19.681 12.3252 19.3762 12.853 19.182 13.4247C18.9878 13.9964 18.9081 14.6007 18.9472 15.2034C19.5608 15.2097 20.1679 15.0765 20.7227 14.8137C21.2775 14.5509 21.7657 14.1655 22.1502 13.6865Z" fill="white"/>
    <path d="M41.9159 19.4139H37.2319L36.107 22.7407H34.123L38.5597 10.432H40.621L45.0575 22.7407H43.0397L41.9159 19.4139ZM37.717 17.8786H41.4298L39.5995 12.4793H39.5483L37.717 17.8786Z" fill="white"/>
    <path d="M54.6367 18.2538C54.6367 21.0426 53.1464 22.8342 50.8978 22.8342C50.3281 22.864 49.7616 22.7327 49.263 22.455C48.7645 22.1774 48.3541 21.7646 48.0789 21.2642H48.0363V25.7091H46.1973V13.7664H47.9773V15.2589H48.0112C48.299 14.7609 48.7164 14.3503 49.2188 14.0709C49.7211 13.7917 50.2896 13.6539 50.8638 13.6724C53.1378 13.6724 54.6367 15.4729 54.6367 18.2538ZM52.7464 18.2538C52.7464 16.437 51.809 15.2424 50.3787 15.2424C48.9736 15.2424 48.0286 16.4622 48.0286 18.2538C48.0286 20.0621 48.9736 21.2729 50.3787 21.2729C51.809 21.2729 52.7464 20.0872 52.7464 18.2538Z" fill="white"/>
    <path d="M64.4974 18.2538C64.4974 21.0426 63.0078 22.8342 60.7591 22.8342C60.1894 22.8642 59.6229 22.7327 59.1243 22.455C58.6259 22.1774 58.2154 21.7646 57.9402 21.2642H57.8976V25.7092H56.0586V13.7664H57.8386V15.2589H57.8725C58.1604 14.7609 58.5777 14.3503 59.0801 14.0709C59.5824 13.7917 60.151 13.6539 60.7252 13.6724C62.9991 13.6724 64.4974 15.4729 64.4974 18.2538ZM62.6077 18.2538C62.6077 16.437 61.6703 15.2424 60.2401 15.2424C58.8351 15.2424 57.89 16.4622 57.89 18.2538C57.89 20.0619 58.8351 21.2729 60.2401 21.2729C61.6703 21.2729 62.6077 20.0872 62.6077 18.2538Z" fill="white"/>
    <path d="M71.0172 19.3111C71.1535 20.5316 72.3373 21.3331 73.955 21.3331C75.505 21.3331 76.6202 20.5316 76.6202 19.431C76.6202 18.4756 75.9476 17.9036 74.3551 17.5116L72.7625 17.1273C70.5061 16.5813 69.4585 15.5243 69.4585 13.809C69.4585 11.6853 71.3061 10.2266 73.9298 10.2266C76.5265 10.2266 78.3066 11.6853 78.3665 13.809H76.5102C76.399 12.5807 75.3852 11.8392 73.9038 11.8392C72.4223 11.8392 71.4085 12.5894 71.4085 13.6813C71.4085 14.5515 72.0561 15.0635 73.6399 15.4556L74.9938 15.7884C77.5151 16.3857 78.5627 17.4002 78.5627 19.2006C78.5627 21.5034 76.7314 22.9457 73.8188 22.9457C71.0935 22.9457 69.2536 21.5373 69.1348 19.3109L71.0172 19.3111Z" fill="white"/>
    <path d="M82.5292 11.6418V13.7655H84.233V15.2243H82.5292V20.1717C82.5292 20.9401 82.8703 21.2983 83.6193 21.2983C83.8216 21.2948 84.0235 21.2806 84.2242 21.2557V22.7058C83.8875 22.7688 83.5453 22.7972 83.2028 22.7909C81.3889 22.7909 80.6815 22.1085 80.6815 20.368V15.2243H79.3789V13.7655H80.6816V11.6418H82.5292Z" fill="white"/>
    <path d="M85.2188 18.2538C85.2188 15.4303 86.8789 13.656 89.4679 13.656C92.0655 13.656 93.718 15.4303 93.718 18.2538C93.718 21.0852 92.0741 22.8517 89.4679 22.8517C86.8625 22.8517 85.2188 21.0852 85.2188 18.2538ZM91.8442 18.2538C91.8442 16.317 90.958 15.1738 89.4679 15.1738C87.9777 15.1738 87.0925 16.3257 87.0925 18.2538C87.0925 20.1985 87.9777 21.333 89.4679 21.333C90.958 21.333 91.8442 20.1985 91.8442 18.2538Z" fill="white"/>
    <path d="M95.2363 13.7662H96.9903V15.2937H97.0328C97.1514 14.8166 97.4305 14.395 97.823 14.0998C98.2153 13.8044 98.6973 13.6536 99.1877 13.6723C99.3997 13.6716 99.6111 13.6946 99.8178 13.7411V15.4641C99.5503 15.3821 99.2712 15.3446 98.9916 15.3527C98.7244 15.3418 98.4581 15.389 98.2109 15.491C97.9635 15.593 97.7413 15.7473 97.5593 15.9435C97.3772 16.1397 97.2397 16.3729 97.1561 16.6273C97.0726 16.8818 97.045 17.1513 97.0752 17.4174V22.7403H95.2363V13.7662Z" fill="white"/>
    <path d="M108.297 20.1046C108.049 21.7337 106.465 22.8517 104.439 22.8517C101.833 22.8517 100.215 21.1025 100.215 18.2964C100.215 15.4815 101.841 13.656 104.362 13.656C106.84 13.656 108.399 15.3615 108.399 18.0825V18.7136H102.071V18.825C102.042 19.1553 102.083 19.488 102.192 19.801C102.301 20.1141 102.476 20.4003 102.704 20.6407C102.932 20.8812 103.208 21.0702 103.514 21.1954C103.821 21.3206 104.151 21.3791 104.481 21.3668C104.916 21.4077 105.352 21.3069 105.725 21.0794C106.098 20.852 106.387 20.5101 106.55 20.1046H108.297ZM102.08 17.4262H106.559C106.576 17.1293 106.531 16.8321 106.427 16.5534C106.323 16.2746 106.163 16.0204 105.957 15.8065C105.751 15.5926 105.502 15.4238 105.228 15.3106C104.953 15.1973 104.658 15.1422 104.362 15.1487C104.062 15.1469 103.765 15.2045 103.488 15.3182C103.211 15.4319 102.959 15.5995 102.747 15.8113C102.535 16.023 102.367 16.2748 102.252 16.552C102.138 16.8292 102.079 17.1263 102.08 17.4262Z" fill="white"/>
    <path d="M109.633 14.9359L110.638 10.432H112.426L111.208 14.9359H109.633Z" fill="white"/>
    <path d="M112.346 18.2542C112.346 15.482 113.87 13.6728 116.092 13.6728C116.663 13.6444 117.229 13.7783 117.726 14.0591C118.224 14.3399 118.632 14.756 118.903 15.2593H118.937V10.432H120.785V22.7407H118.996V21.2143H118.962C118.69 21.728 118.277 22.1533 117.772 22.4403C117.266 22.7272 116.69 22.8641 116.11 22.8346C113.87 22.8346 112.346 21.0265 112.346 18.2542ZM114.227 18.2542C114.227 20.0962 115.165 21.2733 116.595 21.2733C118.009 21.2733 118.954 20.0789 118.954 18.2542C118.954 16.445 118.009 15.2428 116.595 15.2428C115.165 15.2428 114.227 16.4286 114.227 18.2542Z" fill="white"/>
    <path d="M122.406 20.1898C122.406 18.6208 123.607 17.6732 125.735 17.5453L128.188 17.4089V16.7265C128.188 15.7285 127.533 15.165 126.418 15.165C126.004 15.1099 125.585 15.2078 125.238 15.4403C124.891 15.6729 124.642 16.0243 124.535 16.4282H122.815C122.866 14.807 124.373 13.656 126.468 13.656C128.606 13.656 130.019 14.8243 130.019 16.5899V22.7404H128.257V21.2642H128.214C127.932 21.7649 127.52 22.1803 127.023 22.467C126.526 22.7538 125.96 22.9013 125.387 22.8943C125.01 22.9313 124.629 22.8889 124.27 22.7699C123.91 22.6508 123.579 22.4576 123.299 22.203C123.018 21.9483 122.794 21.6377 122.64 21.2909C122.486 20.9443 122.407 20.5692 122.406 20.1898ZM128.188 19.3797V18.6886L125.983 18.825C124.884 18.8937 124.263 19.371 124.263 20.1385C124.263 20.9237 124.91 21.4357 125.898 21.4357C126.184 21.4551 126.471 21.4169 126.742 21.3235C127.013 21.23 127.262 21.0832 127.476 20.8916C127.689 20.6999 127.862 20.4674 127.985 20.2078C128.107 19.9481 128.176 19.6665 128.188 19.3797Z" fill="white"/>
    <path d="M131.895 13.7658H133.649V15.2932H133.691C133.94 14.7671 134.343 14.3294 134.847 14.0385C135.351 13.7474 135.931 13.6169 136.51 13.6641C138.486 13.6641 139.619 14.9351 139.619 16.99V22.7397H137.771V17.3482C137.771 16.0007 137.149 15.2505 135.855 15.2505C135.557 15.2431 135.261 15.2995 134.988 15.4162C134.714 15.533 134.468 15.707 134.267 15.9269C134.066 16.1469 133.914 16.4073 133.822 16.691C133.73 16.9745 133.7 17.2745 133.734 17.5708V22.7397H131.895V13.7658Z" fill="white"/>
    <path d="M34.1232 26.2467C34.1255 26.1386 34.1596 26.0334 34.2212 25.9446C34.2829 25.8558 34.3692 25.7872 34.4697 25.7474C34.57 25.7076 34.6799 25.6982 34.7856 25.7208C34.8911 25.7432 34.9879 25.7964 35.0634 25.8737C35.139 25.9508 35.1901 26.0487 35.2104 26.155C35.2307 26.2611 35.2193 26.371 35.1775 26.4708C35.1357 26.5705 35.0654 26.6556 34.9755 26.7156C34.8858 26.7755 34.7802 26.8076 34.6722 26.8077C34.599 26.808 34.5267 26.7937 34.4591 26.7655C34.3916 26.7372 34.3305 26.6958 34.2793 26.6434C34.2281 26.5911 34.188 26.529 34.1611 26.4609C34.1343 26.3927 34.1214 26.3198 34.1232 26.2467ZM34.2131 33.2717V27.3574H35.1302V33.2717H34.2131Z" fill="white"/>
    <path d="M36.6289 28.8099H37.4755V29.5184H37.5412C37.6527 29.2639 37.8409 29.0505 38.0792 28.908C38.3175 28.7656 38.5942 28.7011 38.8708 28.7236C39.0877 28.7073 39.3054 28.7401 39.5079 28.8195C39.7103 28.8988 39.8923 29.0228 40.0404 29.1823C40.1887 29.3417 40.299 29.5326 40.3635 29.7405C40.4281 29.9485 40.4451 30.1682 40.4132 30.3837V33.2731H39.5339V30.6044C39.5339 29.8872 39.2227 29.5309 38.5723 29.5309C38.4251 29.524 38.2782 29.5492 38.1417 29.6045C38.0051 29.6597 37.8819 29.744 37.7809 29.8514C37.6799 29.9588 37.6031 30.0867 37.5562 30.2267C37.5091 30.3665 37.4928 30.5149 37.5083 30.6616V33.2731H36.6289V28.8099Z" fill="white"/>
    <path d="M41.5547 31.0378C41.5547 29.6275 42.2785 28.734 43.4043 28.734C43.6828 28.7214 43.9592 28.7882 44.201 28.9268C44.443 29.0654 44.6406 29.2701 44.7707 29.5171H44.8365V27.0663H45.7158V33.2719H44.8731V32.5663H44.8037C44.6635 32.8116 44.4591 33.014 44.2124 33.1513C43.9657 33.2886 43.6863 33.3558 43.4043 33.3455C42.2707 33.3455 41.5547 32.452 41.5547 31.0378ZM42.463 31.0378C42.463 31.9845 42.9086 32.5546 43.6537 32.5546C44.3949 32.5546 44.8529 31.9768 44.8529 31.0417C44.8529 30.1115 44.3901 29.5259 43.6537 29.5259C42.9134 29.5259 42.463 30.0988 42.463 31.0378Z" fill="white"/>
    <path d="M47.0439 27.4876C47.0373 27.3737 47.0649 27.2602 47.1234 27.162C47.1819 27.0639 47.2684 26.9856 47.3717 26.9372C47.4751 26.889 47.5905 26.8727 47.7031 26.8909C47.8158 26.909 47.9204 26.9606 48.0033 27.039C48.0864 27.1174 48.144 27.2188 48.1687 27.3305C48.1936 27.442 48.1843 27.5583 48.1422 27.6646C48.1002 27.7708 48.0273 27.8619 47.933 27.9261C47.8387 27.9905 47.7273 28.0249 47.6132 28.025C47.5402 28.0287 47.4673 28.0176 47.3986 27.9923C47.3301 27.9671 47.2673 27.9282 47.2141 27.878C47.161 27.8278 47.1185 27.7673 47.0892 27.7002C47.06 27.6333 47.0446 27.5609 47.0439 27.4876ZM47.1745 28.8079H48.051V33.2713H47.1745V28.8079Z" fill="white"/>
    <path d="M49.4668 28.8086H50.3132V29.4929H50.379C50.4737 29.2553 50.6412 29.0539 50.8574 28.9175C51.0736 28.7812 51.3273 28.7169 51.5822 28.7341C51.7138 28.7325 51.8453 28.7448 51.9745 28.7708V29.64C51.8131 29.6058 51.6486 29.5879 51.4836 29.5868C51.3385 29.5738 51.1923 29.5912 51.0545 29.6383C50.9165 29.6851 50.79 29.7604 50.6829 29.8592C50.5758 29.9581 50.4904 30.0783 50.4325 30.212C50.3744 30.3458 50.3451 30.4902 50.3462 30.6361V33.272H49.4668V28.8086Z" fill="white"/>
    <path d="M52.8994 27.4876C52.8927 27.3737 52.9204 27.2602 52.9788 27.162C53.0372 27.0639 53.1237 26.9856 53.2271 26.9372C53.3305 26.889 53.4459 26.8727 53.5585 26.8909C53.6712 26.909 53.7758 26.9606 53.8588 27.039C53.9417 27.1174 53.9994 27.2188 54.0242 27.3305C54.0489 27.442 54.0397 27.5583 53.9977 27.6646C53.9556 27.7708 53.8827 27.8619 53.7884 27.9261C53.6941 27.9905 53.5826 28.0249 53.4686 28.025C53.3957 28.0287 53.3226 28.0176 53.254 27.9923C53.1855 27.9671 53.1228 27.9282 53.0695 27.878C53.0164 27.8278 52.9738 27.7673 52.9446 27.7002C52.9154 27.6333 52.9 27.5609 52.8994 27.4876ZM53.0298 28.8079H53.9063V33.2713H53.0298V28.8079Z" fill="white"/>
    <path d="M55.3242 28.8099H56.1708V29.5184H56.2365C56.3481 29.2639 56.5362 29.0505 56.7745 28.908C57.0128 28.7656 57.2896 28.7011 57.5663 28.7236C57.783 28.7073 58.0008 28.7401 58.2032 28.8195C58.4057 28.8988 58.5877 29.0228 58.7359 29.1823C58.884 29.3417 58.9943 29.5326 59.0589 29.7405C59.1234 29.9485 59.1404 30.1682 59.1086 30.3837V33.2731H58.2292V30.6044C58.2292 29.8872 57.918 29.5309 57.2676 29.5309C57.1204 29.524 56.9736 29.5492 56.837 29.6045C56.7004 29.6597 56.5774 29.744 56.4762 29.8514C56.3752 29.9588 56.2986 30.0867 56.2515 30.2267C56.2044 30.3665 56.1881 30.5149 56.2037 30.6616V33.2731H55.3242V28.8099Z" fill="white"/>
  </g>
  <defs>
    <clipPath id="clip0_23834_6364">
      <rect width="151" height="44" fill="white"/>
    </clipPath>
  </defs>
</svg>