<svg xmlns="http://www.w3.org/2000/svg" width="10" height="13" viewBox="0 0 10 13" fill="none">
  <path d="M4.80444 4.99393C5.80103 6.02982 7.38385 6.12168 7.87208 6.12623C8.36031 6.13077 10 6.13714 10 6.13714L5.19555 1.14321C4.19897 0.107319 2.61615 0.015462 2.12792 0.0109146C1.63969 0.00636727 0 0 0 0L4.80444 4.99393Z" fill="#008CFF"/>
  <path d="M4.80444 8.00607C5.80103 6.97018 7.38385 6.87832 7.87208 6.87377C8.36031 6.86923 10 6.86286 10 6.86286L5.19555 11.8568C4.19897 12.8927 2.61615 12.9845 2.12792 12.9891C1.63969 12.9936 0 13 0 13L4.80444 8.00607Z" fill="#008CFF"/>
</svg>