<svg xmlns="http://www.w3.org/2000/svg" width="10" height="13" viewBox="0 0 10 13" fill="none">
  <path d="M5.19556 4.99393C4.19897 6.02982 2.61615 6.12168 2.12792 6.12623C1.63969 6.13077 2.15765e-07 6.13714 2.15765e-07 6.13714L4.80445 1.14321C5.80103 0.107319 7.38385 0.015462 7.87208 0.0109146C8.36031 0.00636727 10 0 10 0L5.19556 4.99393Z" fill="#008CFF"/>
  <path d="M5.19556 8.00607C4.19897 6.97018 2.61615 6.87832 2.12792 6.87377C1.63969 6.86923 2.15765e-07 6.86286 2.15765e-07 6.86286L4.80445 11.8568C5.80103 12.8927 7.38385 12.9845 7.87208 12.9891C8.36031 12.9936 10 13 10 13L5.19556 8.00607Z" fill="#008CFF"/>
</svg>