<svg width="113" height="40" viewBox="0 0 113 40" fill="none" xmlns="http://www.w3.org/2000/svg">
<path d="M58.0966 6.84229C58.0966 6.84229 53.0434 6.8479 53.0434 11.6767L53.0472 27.9872C53.0472 29.7328 52.8209 31.1359 52.3777 32.1556C51.94 33.1584 51.2556 33.8712 50.2831 34.3352C49.2975 34.8067 47.9585 35.0461 46.3071 35.0461C45.4543 35.0461 44.5323 34.9713 43.5673 34.8254L43.2026 34.7692V39.1752L43.4551 39.2276C44.4931 39.4409 45.7087 39.5494 47.0701 39.5494C49.6248 39.5494 51.7268 39.1602 53.3221 38.3932C54.9398 37.6149 56.1554 36.3932 56.9334 34.758C57.7001 33.1472 58.0891 31.0518 58.0891 28.5279L58.0985 6.84229H58.0966Z" fill="white"/>
<path d="M107.809 35.497C106.317 35.497 105.17 35.0835 104.396 34.2678C103.618 33.4483 103.224 32.2285 103.224 30.6401V20.8815H108.583C112.492 20.8815 112.498 16.7861 112.498 16.7861H103.224V11.252H98.3181V16.7842H93.7324V20.8815H98.3181V31.4932C98.3181 34.1181 99.053 36.1705 100.504 37.5886C101.952 39.0068 104.076 39.7252 106.818 39.7252C108.512 39.7252 110.233 39.5101 111.931 39.0854L112.17 39.0255V34.8066L111.766 34.9207C110.424 35.3005 109.09 35.4932 107.805 35.4932L107.809 35.497Z" fill="white"/>
<path d="M92.5242 29.4275V29.1113C92.5242 27.0402 92.1371 25.0907 91.3741 23.3171C90.3604 21.0122 88.6174 19.1974 86.1956 17.9252C83.7924 16.6623 80.8076 16.0225 77.3254 16.0225C73.8432 16.0225 70.8864 16.638 68.4403 17.8541C65.9716 19.0814 64.2043 20.8587 63.1888 23.1375C62.5156 24.6698 62.1733 26.318 62.1733 28.0337C62.1733 29.7493 62.5006 31.3695 63.144 32.7483C64.1595 35.057 65.9492 36.8643 68.4627 38.1216C70.9538 39.3676 74.0264 39.9999 77.5966 39.9999C80.0708 39.9999 82.3449 39.7081 84.361 39.1337C86.392 38.5537 88.1219 37.622 89.4983 36.3666C91.0113 35.0084 91.9968 33.3021 92.4288 31.2946L92.5111 30.9111H87.5552L87.4953 31.1506C87.2429 32.1627 86.7305 33.0159 85.9768 33.6875C85.0866 34.4621 83.9177 35.0608 82.5001 35.4667C81.0676 35.8765 79.463 36.0841 77.7312 36.0841C75.2102 36.0841 73.0465 35.6782 71.2997 34.8755C69.5811 34.0879 68.3785 32.9523 67.724 31.5004C67.4266 30.8587 67.2246 30.1646 67.1199 29.4312C66.8824 27.3601 67.3069 25.6932 67.3069 25.6932C67.4416 25.203 67.565 24.8419 67.681 24.6118C68.3654 23.1001 69.5324 21.942 71.1483 21.1693C72.7903 20.3835 74.8699 19.985 77.3291 19.985C79.7884 19.985 81.8549 20.376 83.5605 21.1487C85.2325 21.9064 86.4125 23.0271 87.0633 24.4677C87.2373 24.883 87.3813 25.2928 87.4897 25.6932L72.506 25.6857C68.934 25.6857 68.9302 29.4275 68.9302 29.4275H92.528H92.5242Z" fill="white"/>
<path d="M36.8855 9.51728C36.8855 6.50325 34.6263 3.97754 33.8951 3.23292C33.1638 2.48643 30.6934 0 30.6934 0V26.8418C30.6934 29.8558 32.9525 32.3816 33.6838 33.1262C34.415 33.8727 36.8855 36.3591 36.8855 36.3591V9.51728Z" fill="#008CFF"/>
<path d="M26.158 13.2554C28.2881 11.1245 28.477 7.73999 28.4863 6.69603C28.4957 5.65207 28.5088 2.146 28.5088 2.146L2.3508 28.3124C0.220679 30.4434 0.0317928 33.8278 0.022442 34.8718C0.0130911 35.9158 0 39.4218 0 39.4218L26.158 13.2554Z" fill="#008CFF"/>
<path d="M26.158 13.2554C28.2881 11.1245 28.477 7.73999 28.4863 6.69603C28.4957 5.65207 28.5088 2.146 28.5088 2.146L2.3508 28.3124C0.220679 30.4434 0.0317928 33.8278 0.022442 34.8718C0.0130911 35.9158 0 39.4218 0 39.4218L26.158 13.2554Z" fill="#008CFF"/>
<path d="M25.784 37.1056C27.9141 39.2366 31.2972 39.4256 32.3407 39.4349C33.3843 39.4443 36.889 39.4574 36.889 39.4574L26.6199 29.1842C24.4898 27.0533 21.1067 26.8643 20.0631 26.855C19.0196 26.8456 15.5149 26.8325 15.5149 26.8325L25.784 37.1056Z" fill="#008CFF"/>
</svg>