<svg xmlns="http://www.w3.org/2000/svg" width="151" height="44" viewBox="0 0 151 44" fill="none">
  <g clip-path="url(#clip0_23834_6345)">
    <path d="M8.43754 0.5H142.564C146.836 0.5 150.3 3.96901 150.3 8.25V35.2149C150.3 39.4958 146.836 42.9649 142.564 42.9649H8.43754C4.16564 42.9649 0.701172 39.4958 0.701172 35.2149V8.25C0.701172 3.96901 4.16564 0.5 8.43754 0.5Z" fill="#091F47" stroke="#008CFF"/>
    <path d="M10.8565 8.0647C10.5247 8.39708 10.4141 8.95105 10.4141 9.61581V34.101C10.4141 34.7658 10.6353 35.3198 10.9671 35.6521L11.0777 35.7629L24.7933 22.0246V21.9138V21.803L10.8565 8.0647Z" fill="url(#paint0_linear_23834_6345)"/>
    <path d="M29.2166 26.6774L24.6816 22.1349V21.9134V21.8026L29.2166 17.26L29.3272 17.3708L34.747 20.4731C36.2956 21.3594 36.2956 22.7997 34.747 23.6861L29.2166 26.6774Z" fill="url(#paint1_linear_23834_6345)"/>
    <path d="M29.3273 26.566L24.6817 21.9127L10.8555 35.7619C11.4085 36.3158 12.1828 36.3158 13.1783 35.8727L29.3273 26.566Z" fill="url(#paint2_linear_23834_6345)"/>
    <path d="M29.3273 17.2582L13.1783 8.06232C12.1828 7.50836 11.4085 7.61915 10.8555 8.17312L24.6817 21.9114L29.3273 17.2582Z" fill="url(#paint3_linear_23834_6345)"/>
    <path opacity="0.2" d="M29.2167 26.4567L13.1783 35.5417C12.2934 36.0957 11.5191 35.9849 10.9661 35.5417L10.8555 35.6525L10.9661 35.7632C11.5191 36.2064 12.2934 36.3172 13.1783 35.7632L29.2167 26.4567Z" fill="#008CFF"/>
    <path opacity="0.12" d="M10.8565 35.5421C10.5247 35.2096 10.4141 34.6558 10.4141 33.991V34.1018C10.4141 34.7665 10.6353 35.3205 10.9671 35.6529V35.5421H10.8565Z" fill="#008CFF"/>
    <path opacity="0.12" d="M34.7492 23.353L29.2188 26.4553L29.3293 26.566L34.7492 23.4639C35.5234 23.0207 35.8553 22.4667 35.8553 21.9127C35.8553 22.4667 35.4128 22.9099 34.7492 23.353Z" fill="#008CFF"/>
    <path opacity="0.25" d="M13.1793 8.17429L34.7482 20.4722C35.4118 20.9154 35.8544 21.3586 35.8544 21.9125C35.8544 21.3586 35.5224 20.8047 34.7482 20.3615L13.1793 8.06349C11.6308 7.17715 10.4141 7.84191 10.4141 9.61459V9.72539C10.4141 8.06349 11.6308 7.28794 13.1793 8.17429Z" fill="white"/>
    <path d="M71.1688 13.523C68.846 13.523 67.0763 15.2956 67.0763 17.6223C67.0763 19.9489 68.9567 21.7217 71.1688 21.7217C73.4916 21.7217 75.2613 19.9489 75.2613 17.6223C75.372 15.2956 73.4916 13.523 71.1688 13.523ZM71.1688 20.1706C69.952 20.1706 68.846 19.1734 68.846 17.6223C68.846 16.182 69.952 15.0741 71.1688 15.0741C72.3855 15.0741 73.4916 16.0713 73.4916 17.6223C73.4916 19.0626 72.4961 20.1706 71.1688 20.1706ZM62.2094 13.523C59.8866 13.523 58.1169 15.2956 58.1169 17.6223C58.1169 19.9489 59.9973 21.7217 62.2094 21.7217C64.4216 21.7217 66.302 19.9489 66.302 17.6223C66.302 15.2956 64.4216 13.523 62.2094 13.523ZM62.2094 20.1706C60.9927 20.1706 59.8866 19.1734 59.8866 17.6223C59.8866 16.182 60.9927 15.0741 62.2094 15.0741C63.4261 15.0741 64.5322 16.0713 64.5322 17.6223C64.5322 19.0626 63.4261 20.1706 62.2094 20.1706ZM51.4803 14.7417V16.5144H55.6835C55.5728 17.5115 55.2411 18.1763 54.688 18.7303C54.1349 19.2842 53.1394 20.0597 51.4803 20.0597C48.9363 20.0597 46.9453 17.9548 46.9453 15.4065C46.9453 12.8582 48.9363 10.7532 51.4803 10.7532C52.9183 10.7532 53.9136 11.3071 54.5773 11.9719L55.794 10.7532C54.7986 9.75602 53.3607 8.98047 51.3697 8.98047C47.8301 8.98047 44.8438 11.8611 44.8438 15.4065C44.8438 18.9518 47.8301 21.8324 51.3697 21.8324C53.2501 21.8324 54.688 21.1677 55.794 20.0597C56.9001 18.9518 57.3426 17.2899 57.3426 15.9605C57.3426 15.5173 57.3426 15.1848 57.2319 14.8525H51.4803V14.7417ZM95.2817 16.182C94.9499 15.2956 93.8438 13.523 91.7421 13.523C89.6406 13.523 87.8709 15.1848 87.8709 17.6223C87.8709 19.9489 89.6406 21.7217 91.9634 21.7217C93.8438 21.7217 94.9499 20.6137 95.3924 19.9489L93.9544 19.0626C93.512 19.7274 92.8483 20.1706 91.9634 20.1706C91.0786 20.1706 90.4149 19.7274 89.9724 18.9518L95.5029 16.6251L95.2817 16.182ZM89.6406 17.5115C89.6406 15.9605 90.8573 15.0741 91.7421 15.0741C92.4059 15.0741 93.0696 15.4065 93.2907 15.9605L89.6406 17.5115ZM85.2162 21.5001H86.9859V9.42364H85.2162V21.5001ZM82.2297 14.4093C81.7873 13.9662 81.0131 13.523 80.0176 13.523C77.916 13.523 76.0357 15.2956 76.0357 17.6223C76.0357 19.9489 77.916 21.7217 80.0176 21.7217C81.0131 21.7217 81.7873 21.2785 82.2297 20.8352H82.3403V21.3892C82.3403 22.9404 81.4555 23.8267 80.1282 23.8267C79.022 23.8267 78.3585 23.0512 78.0266 22.3864L76.4781 23.0512C76.9205 24.159 78.1372 25.4887 80.1282 25.4887C82.2298 25.4887 83.9996 24.2699 83.9996 21.1677V13.7446H82.3403V14.4093H82.2297ZM80.1282 20.1706C78.9115 20.1706 77.8054 19.1734 77.8054 17.7331C77.8054 16.2928 78.8009 15.1848 80.1282 15.1848C81.3448 15.1848 82.3403 16.2928 82.3403 17.7331C82.3403 19.0626 81.4555 20.1706 80.1282 20.1706ZM103.799 9.42364H99.4849V21.5001H101.255V16.9576H103.799C105.79 16.9576 107.781 15.5173 107.781 13.1906C107.781 10.8639 105.79 9.42364 103.799 9.42364ZM103.799 15.1848H101.255V11.0855H103.799C105.126 11.0855 105.9 12.1935 105.9 13.1906C105.9 14.077 105.126 15.1848 103.799 15.1848ZM114.97 13.523C113.643 13.523 112.316 14.077 111.763 15.4065L113.311 16.0713C113.643 15.4065 114.307 15.1848 114.97 15.1848C115.855 15.1848 116.851 15.7388 116.851 16.736V16.8468C116.519 16.6251 115.855 16.4036 114.97 16.4036C113.2 16.4036 111.541 17.4008 111.541 19.1734C111.541 20.8352 112.979 21.8324 114.528 21.8324C115.745 21.8324 116.408 21.2785 116.851 20.6137H116.961V21.5001H118.731V16.8468C118.62 14.7417 116.961 13.523 114.97 13.523ZM114.749 20.1706C114.196 20.1706 113.311 19.8382 113.311 19.1734C113.311 18.2871 114.307 17.8439 115.191 17.8439C115.966 17.8439 116.408 18.0654 116.851 18.2871C116.74 19.2842 115.745 20.1706 114.749 20.1706ZM124.925 13.7446L122.824 18.9518H122.713L120.611 13.7446H118.62L121.828 21.0569L119.948 25.1562H121.828L126.805 13.7446H124.925ZM108.666 21.5001H110.435V9.42364H108.666V21.5001Z" fill="white"/>
    <path d="M45.618 31.6502H44.8438V29.545H45.618V31.6502Z" fill="white" stroke="white" stroke-width="0.161153" stroke-miterlimit="10"/>
    <path d="M47.0566 36.1933V29.4349H49.1583C50.1536 29.4349 51.0386 29.7674 51.5916 30.3213C52.2553 30.9861 52.4766 31.7616 52.4766 32.7587C52.4766 33.7559 52.1447 34.5314 51.5916 35.1962C50.928 35.861 50.1536 36.0825 49.1583 36.0825H47.0566V36.1933ZM47.9415 35.4178H49.1583C49.9325 35.4178 50.5961 35.1962 51.0386 34.753C51.4811 34.3099 51.7022 33.645 51.7022 32.8695C51.7022 32.094 51.4811 31.4292 51.0386 30.9861C50.5961 30.5429 49.9325 30.3213 49.1583 30.3213H47.9415V35.4178Z" fill="white" stroke="white" stroke-width="0.161153" stroke-miterlimit="10"/>
    <path d="M57.6733 30.3213H54.5763V32.4264H57.3415V33.2019H54.5763V35.307H57.6733V36.1933H53.6914V29.4349H57.6733V30.3213Z" fill="white" stroke="white" stroke-width="0.161153" stroke-miterlimit="10"/>
    <path d="M58.8926 36.1926V29.4342H59.9987L63.317 34.6414V33.3119V29.3235H64.2019V36.1926H63.317L59.8881 30.653V31.9825V36.1926H58.8926Z" fill="white" stroke="white" stroke-width="0.161153" stroke-miterlimit="10"/>
    <path d="M66.9668 36.1933L69.5109 29.4349H70.5064L73.0503 36.1933H72.0548L71.3912 34.4207H68.5154L67.8517 36.1933H66.9668ZM68.8472 33.5344H71.0593L69.9533 30.5429L68.8472 33.5344Z" fill="white" stroke="white" stroke-width="0.161153" stroke-miterlimit="10"/>
    <path d="M73.8242 36.1933V29.4349H74.7091V35.307H77.5849V36.1933H73.8242Z" fill="white" stroke="white" stroke-width="0.161153" stroke-miterlimit="10"/>
    <path d="M78.5801 36.1933V29.4349H79.4651V36.1933H78.5801Z" fill="white" stroke="white" stroke-width="0.161153" stroke-miterlimit="10"/>
    <path d="M81.0117 36.1926V29.4342H82.1179L85.4362 34.6414V33.3119V29.3235H86.321V36.1926H85.4362L82.0072 30.653V31.9825V36.1926H81.0117Z" fill="white" stroke="white" stroke-width="0.161153" stroke-miterlimit="10"/>
  </g>
  <defs>
    <linearGradient id="paint0_linear_23834_6345" x1="23.4658" y1="9.40508" x2="4.87212" y2="27.968" gradientUnits="userSpaceOnUse">
      <stop stop-color="#00A0FF"/>
      <stop offset="0.00657445" stop-color="#00A1FF"/>
      <stop offset="0.2601" stop-color="#00BEFF"/>
      <stop offset="0.5122" stop-color="#00D2FF"/>
      <stop offset="0.7604" stop-color="#00DFFF"/>
      <stop offset="1" stop-color="#00E3FF"/>
    </linearGradient>
    <linearGradient id="paint1_linear_23834_6345" x1="36.7762" y1="21.9151" x2="10.0121" y2="21.9151" gradientUnits="userSpaceOnUse">
      <stop stop-color="#FFE000"/>
      <stop offset="0.4087" stop-color="#FFBD00"/>
      <stop offset="0.7754" stop-color="#FFA500"/>
      <stop offset="1" stop-color="#FF9C00"/>
    </linearGradient>
    <linearGradient id="paint2_linear_23834_6345" x1="26.8131" y1="24.4567" x2="1.59872" y2="49.6296" gradientUnits="userSpaceOnUse">
      <stop stop-color="#FF3A44"/>
      <stop offset="1" stop-color="#C31162"/>
    </linearGradient>
    <linearGradient id="paint3_linear_23834_6345" x1="7.42369" y1="-0.0518125" x2="18.683" y2="11.1889" gradientUnits="userSpaceOnUse">
      <stop stop-color="#32A071"/>
      <stop offset="0.0685" stop-color="#2DA771"/>
      <stop offset="0.4762" stop-color="#15CF74"/>
      <stop offset="0.8009" stop-color="#06E775"/>
      <stop offset="1" stop-color="#00F076"/>
    </linearGradient>
    <clipPath id="clip0_23834_6345">
      <rect width="151" height="44" fill="white"/>
    </clipPath>
  </defs>
</svg>