<svg xmlns="http://www.w3.org/2000/svg" width="441" height="433" viewBox="0 0 441 433" fill="none">
<rect width="441" height="432" fill="none"/>
<g opacity="0.5">
<path d="M312.99 145.473C338.413 122.082 340.643 84.9445 340.643 73.4543C340.866 61.9641 340.866 23.5952 340.866 23.5952L29.0991 310.439C3.67611 333.83 1.44602 370.968 1.22301 382.458C1.22301 393.948 1 432.317 1 432.317L312.99 145.473Z" fill="#304976"/>
<path d="M308.533 406.875C333.956 430.266 374.32 432.318 386.809 432.318C399.297 432.523 441 432.523 441 432.523L318.345 320.084C292.922 296.693 252.557 294.641 240.069 294.641C227.58 294.436 185.878 294.436 185.878 294.436L308.533 406.875Z" fill="#304976"/>
<path d="M440.743 104.437C440.743 71.4032 410.768 43.7037 401.107 35.4964C391.446 27.2892 358.746 0 358.746 0V294.436C358.746 327.47 388.721 355.169 398.382 363.377C408.043 371.584 440.743 398.873 440.743 398.873V104.437Z" fill="#304976"/>
</g>
</svg>