<svg width="19" height="18" viewBox="0 0 19 18" fill="none" xmlns="http://www.w3.org/2000/svg">
  <path d="M1.17778 9.3673L3.82824 11.8521C4.18137 12.1832 4.63186 12.3915 5.11281 12.4462C5.59376 12.5009 6.07954 12.3991 6.498 12.1558L17.1438 5.96634L15.8333 4.36453C15.4933 3.94897 15.0159 3.6687 14.4873 3.57433C13.9587 3.47997 13.4139 3.57773 12.9511 3.84996L9.83134 5.68509L5.61259 4.27884L4.45251 4.77602C4.36572 4.81322 4.28969 4.87166 4.23142 4.94597C4.17316 5.02028 4.13454 5.10806 4.11913 5.20122C4.10372 5.29438 4.11201 5.38993 4.14323 5.47904C4.17445 5.56815 4.22761 5.64798 4.29779 5.71114L6.45634 7.65384L4.48759 8.77884L2.51884 7.93509L1.34092 8.43992C1.25502 8.47673 1.17964 8.53437 1.12161 8.60762C1.06357 8.68088 1.0247 8.76744 1.00851 8.85948C0.992315 8.95153 0.999312 9.04616 1.02887 9.13482C1.05842 9.22348 1.1096 9.30338 1.17778 9.3673Z" stroke="#7E8492" stroke-width="1.2" stroke-linecap="round" stroke-linejoin="round"/>
  <path d="M4.00781 14.4607H14.1328" stroke="#7E8492" stroke-width="1.2" stroke-linecap="round" stroke-linejoin="round"/>
</svg>
