<svg xmlns="http://www.w3.org/2000/svg" width="16" height="16" viewBox="0 0 16 16" fill="none">
  <path d="M8 0C6.41775 0 4.87103 0.469192 3.55544 1.34824C2.23985 2.22729 1.21447 3.47672 0.608967 4.93853C0.00346627 6.40034 -0.15496 8.00887 0.153721 9.56072C0.462403 11.1126 1.22433 12.538 2.34315 13.6569C3.46197 14.7757 4.88743 15.5376 6.43928 15.8463C7.99113 16.155 9.59966 15.9965 11.0615 15.391C12.5233 14.7855 13.7727 13.7602 14.6518 12.4446C15.5308 11.129 16 9.58225 16 8C15.9976 5.879 15.154 3.84556 13.6542 2.34578C12.1544 0.846012 10.121 0.00238965 8 0ZM1.15429 8.22514L1.91909 8.47988L2.85715 9.88726V10.6205C2.85715 10.772 2.91735 10.9174 3.02452 11.0245L4.57143 12.5714V13.9294C3.56456 13.3468 2.72257 12.5174 2.12475 11.5195C1.52693 10.5215 1.19296 9.38781 1.15429 8.22514ZM8 14.8571C7.5057 14.8562 7.01295 14.8016 6.5304 14.6945L6.85715 13.7143L7.88835 11.1362C7.92277 11.0502 7.93575 10.957 7.92615 10.8648C7.91656 10.7726 7.88467 10.6842 7.83326 10.607L7.0268 9.39731C6.97462 9.31903 6.90391 9.25485 6.82097 9.21046C6.73802 9.16607 6.64539 9.14285 6.55132 9.14286H3.73417L3.02092 8.0728L4.23663 6.85714H5.14286V8H6.28572V6.43748L8.49612 2.5692L7.50389 2.00223L7.01537 2.85714H5.44869L4.82812 1.92634C5.66122 1.48667 6.57682 1.22548 7.5165 1.15946C8.45619 1.09343 9.39932 1.22401 10.2857 1.54286V3.42857C10.2857 3.58012 10.3459 3.72547 10.4531 3.83263C10.5602 3.9398 10.7056 4 10.8571 4H11.6942C11.7883 4 11.8809 3.97678 11.9638 3.93239C12.0468 3.888 12.1175 3.82382 12.1697 3.74554L12.6707 2.99389C13.3235 3.60252 13.8516 4.33242 14.2254 5.14286H11.8971C11.765 5.14285 11.637 5.18862 11.5349 5.27238C11.4327 5.35613 11.3627 5.47269 11.3368 5.60223L10.9242 8.15697C10.9048 8.27713 10.9242 8.40035 10.9797 8.50867C11.0352 8.61699 11.1239 8.70477 11.2327 8.7592L13.1429 9.71428L13.5343 12.0318C12.9001 12.9059 12.0681 13.6176 11.1062 14.1086C10.1444 14.5997 9.07996 14.8562 8 14.8571Z" fill="white"/>
</svg>