<svg xmlns="http://www.w3.org/2000/svg" width="96" height="34" viewBox="0 0 96 34" fill="none">
  <path d="M49.3818 5.81592C49.3818 5.81592 45.0865 5.82069 45.0865 9.92517L45.0897 23.7891C45.0897 25.2728 44.8974 26.4655 44.5206 27.3322C44.1487 28.1846 43.5668 28.7905 42.7402 29.1849C41.9025 29.5856 40.7643 29.7892 39.3607 29.7892C38.6358 29.7892 37.8521 29.7256 37.0318 29.6015L36.7219 29.5538V33.2989L36.9365 33.3434C37.8187 33.5247 38.852 33.617 40.0092 33.617C42.1807 33.617 43.9674 33.2862 45.3234 32.6342C46.6984 31.9726 47.7317 30.9342 48.393 29.5443C49.0447 28.1751 49.3754 26.394 49.3754 24.2487L49.3833 5.81592H49.3818Z" fill="white"/>
  <path d="M91.6378 30.1722C90.3693 30.1722 89.3948 29.8208 88.7367 29.1274C88.0754 28.4309 87.74 27.394 87.74 26.0439V17.7491H92.2959C95.6183 17.7491 95.623 14.268 95.623 14.268H87.74V9.56396H83.5704V14.2664H79.6726V17.7491H83.5704V26.7691C83.5704 29.0002 84.1951 30.7447 85.4287 31.9502C86.6591 33.1556 88.4649 33.7662 90.7953 33.7662C92.2355 33.7662 93.698 33.5834 95.1414 33.2224L95.3449 33.1715V29.5854L95.0015 29.6824C93.8601 30.0053 92.7267 30.1691 91.6346 30.1691L91.6378 30.1722Z" fill="white"/>
  <path d="M78.6452 25.0136V24.7448C78.6452 22.9844 78.3161 21.3273 77.6675 19.8198C76.806 17.8606 75.3244 16.318 73.2658 15.2366C71.2232 14.1632 68.6861 13.6193 65.7262 13.6193C62.7663 13.6193 60.2531 14.1425 58.1738 15.1762C56.0755 16.2194 54.5733 17.7302 53.7101 19.6671C53.1378 20.9695 52.8469 22.3706 52.8469 23.8288C52.8469 25.2871 53.1251 26.6643 53.6719 27.8363C54.5351 29.7987 56.0564 31.3349 58.1929 32.4036C60.3103 33.4627 62.9221 34.0002 65.9567 34.0002C68.0598 34.0002 69.9928 33.7521 71.7064 33.2639C73.4328 32.7709 74.9032 31.979 76.0731 30.9119C77.3592 29.7574 78.1969 28.307 78.5641 26.6007L78.6341 26.2747H74.4215L74.3706 26.4782C74.156 27.3386 73.7205 28.0637 73.0799 28.6346C72.3232 29.293 71.3297 29.8019 70.1247 30.147C68.9071 30.4952 67.5431 30.6718 66.0711 30.6718C63.9283 30.6718 62.0891 30.3267 60.6044 29.6444C59.1435 28.9749 58.1213 28.0097 57.565 26.7756C57.3122 26.2301 57.1405 25.6402 57.0515 25.0168C56.8496 23.2563 57.2105 21.8394 57.2105 21.8394C57.3249 21.4228 57.4299 21.1158 57.5284 20.9202C58.1102 19.6353 59.1022 18.6509 60.4756 17.9941C61.8713 17.3262 63.639 16.9875 65.7294 16.9875C67.8197 16.9875 69.5763 17.3199 71.026 17.9767C72.4472 18.6207 73.4502 19.5733 74.0034 20.7978C74.1513 21.1508 74.2737 21.4991 74.3659 21.8394L61.6297 21.8331C58.5935 21.8331 58.5903 25.0136 58.5903 25.0136H78.6484H78.6452Z" fill="white"/>
  <path d="M31.3526 8.08969C31.3526 5.52777 29.4324 3.38091 28.8108 2.74798C28.1893 2.11346 26.0894 0 26.0894 0V22.8156C26.0894 25.3775 28.0096 27.5243 28.6312 28.1573C29.2527 28.7918 31.3526 30.9052 31.3526 30.9052V8.08969Z" fill="white"/>
  <path d="M22.2343 11.2671C24.0449 9.45579 24.2054 6.57899 24.2134 5.69163C24.2213 4.80426 24.2325 1.8241 24.2325 1.8241L1.99818 24.0656C0.187577 25.8769 0.0270239 28.7537 0.0190757 29.641C0.0111275 30.5284 0 33.5086 0 33.5086L22.2343 11.2671Z" fill="white"/>
  <path d="M22.2343 11.2671C24.0449 9.45579 24.2054 6.57899 24.2134 5.69163C24.2213 4.80426 24.2325 1.8241 24.2325 1.8241L1.99818 24.0656C0.187577 25.8769 0.0270239 28.7537 0.0190757 29.641C0.0111275 30.5284 0 33.5086 0 33.5086L22.2343 11.2671Z" fill="white"/>
  <path d="M21.9161 31.5398C23.7267 33.3511 26.6024 33.5117 27.4894 33.5197C28.3764 33.5276 31.3554 33.5387 31.3554 33.5387L22.6267 24.8066C20.8161 22.9953 17.9405 22.8347 17.0534 22.8267C16.1664 22.8188 13.1874 22.8076 13.1874 22.8076L21.9161 31.5398Z" fill="white"/>
</svg>