<svg width="24" height="17" viewBox="0 0 24 17" fill="none" xmlns="http://www.w3.org/2000/svg">
<g id="Vector">
<path d="M19.0919 3.28209C20.6466 3.28019 21.9493 2.08322 22.3333 1.69572C22.7172 1.30823 24 0 24 0L4.90812 0.0226473C3.35336 0.0245486 2.05069 1.22152 1.66674 1.60902C1.28279 1.99651 0 3.30474 0 3.30474L19.0919 3.28209Z" fill="white"/>
<path d="M19.0919 10.1297C20.6466 10.1278 21.9493 8.93085 22.3333 8.54335C22.7172 8.15586 24 6.84763 24 6.84763L4.90812 6.87028C3.35336 6.87218 2.05069 8.06915 1.66674 8.45665C1.28279 8.84414 0 10.1524 0 10.1524L19.0919 10.1297Z" fill="white"/>
<path d="M19.0919 16.9774C20.6466 16.9755 21.9493 15.7785 22.3333 15.391C22.7172 15.0035 24 13.6953 24 13.6953L4.90812 13.7179C3.35336 13.7198 2.05069 14.9168 1.66674 15.3043C1.28279 15.6918 0 17 0 17L19.0919 16.9774Z" fill="white"/>
</g>
</svg>
