<svg width="14" height="12" viewBox="0 0 14 12" fill="none" xmlns="http://www.w3.org/2000/svg">
<path d="M5.37808 5.37596C6.49366 6.49109 6.59258 8.26219 6.59747 8.8085C6.60237 9.35481 6.60923 11.1895 6.60923 11.1895L1.23115 5.81359C0.115574 4.69845 0.0166513 2.92736 0.0117541 2.38105C0.00685698 1.83474 0 0 0 0L5.37808 5.37596Z" fill="#008CFF"/>
<path d="M8.62192 5.37596C7.50634 6.49109 7.40742 8.26219 7.40252 8.8085C7.39763 9.35481 7.39077 11.1895 7.39077 11.1895L12.7688 5.81359C13.8844 4.69845 13.9833 2.92736 13.9882 2.38105C13.9931 1.83474 14 6.11959e-07 14 6.11959e-07L8.62192 5.37596Z" fill="#008CFF"/>
</svg>